<svg xmlns="http://www.w3.org/2000/svg" width="113.201" height="95.473" viewBox="0 0 113.201 95.473">
  <g id="Group_14642" data-name="Group 14642" transform="translate(0 0)">
    <g id="Group_14634" data-name="Group 14634" transform="translate(0 0)">
      <path id="Path_52431" data-name="Path 52431" d="M311.038,272.707a14.488,14.488,0,0,1-5.561-1.007l-45.085-19.393a10.525,10.525,0,0,1-5.954-9.043V206.678a10.522,10.522,0,0,1,5.955-9.043l45.084-19.393a14.476,14.476,0,0,1,5.562-1.008h0a14.478,14.478,0,0,1,5.562,1.008l45.084,19.393a10.52,10.52,0,0,1,5.955,9.042v36.584a10.524,10.524,0,0,1-5.955,9.043L316.6,271.7A14.5,14.5,0,0,1,311.038,272.707Zm0-91.724a10.857,10.857,0,0,0-4.08.7l-45.085,19.393a6.808,6.808,0,0,0-3.687,5.6v36.584a6.808,6.808,0,0,0,3.687,5.6l45.085,19.394a12.192,12.192,0,0,0,8.161,0L360.2,248.861a6.808,6.808,0,0,0,3.689-5.6V206.678a6.81,6.81,0,0,0-3.688-5.6l-45.085-19.393A10.857,10.857,0,0,0,311.038,180.982Z" transform="translate(-254.437 -177.234)" fill="#fff"/>
    </g>
    <g id="Group_14641" data-name="Group 14641" transform="translate(9.746 15.935)">
      <g id="Group_14635" data-name="Group 14635" transform="translate(27.338 0)">
        <path id="Path_52432" data-name="Path 52432" d="M353.589,242.855v-5.8a13.078,13.078,0,0,1,0-4.2c.587-2.266-1.405-5.412-.168-8.811,0,0-1.532-.126-1.784,1.07s0,10.509,0,10.509h-1.823V225.181s-.283-2.674,2.957-2.706H377.5s2.141.021,2.476-.4-.085-1.006-1.134-1.342c0,0,1.469-.714,3.441,1.09,0,0-1.2-3.063.5-3.44a12.983,12.983,0,0,1,4.027,0s-3.211.818-3.147,2.517c0,0,3.587,3.21,4.721,5.286s-.063,2.958-1.449,2.958-3.524-1.133-4.846-.945-1.7,6.294-6.418,7.363l-.126,6.814h-1.574a17.323,17.323,0,0,0-.251-4.421c-.441-1.574.251-2.119.336-3.755s-.021-2.917,3-3.231-2.329-3.65-3.272-4.028-4.091-.817-3.713.756.944,2.307-1.7,3.02c-1.531.462-6.606-.629-9.88-.314s-3.146,3.021-3.02,4.216,1.857,1.605-.629,2.518l.042,5.99h-1.3Z" transform="translate(-349.808 -218.217)" fill="#fff"/>
        <path id="Path_52433" data-name="Path 52433" d="M379,264.7l-.026-1.193a6.848,6.848,0,0,1-3.709-4.54c-.63-3.189.252-4.489.88-4.363s1.762,3.4,3.4,3.231,1.342-4.406,3.356-4.322a1.775,1.775,0,0,1,1.385,1.678s-.628-.294-.965.084,3.5,4.971-2.414,7.739c0,0-.817-.056-.817,1.685Z" transform="translate(-365.236 -239.787)" fill="#fff"/>
      </g>
      <g id="Group_14636" data-name="Group 14636" transform="translate(0.307 28.822)">
        <path id="Path_52434" data-name="Path 52434" d="M288.016,307.538a7.354,7.354,0,0,1-7.725-7.557v-.041a7.542,7.542,0,0,1,7.7-7.6,8.066,8.066,0,0,1,5.773,2.015l-2.036,2.457a5.414,5.414,0,0,0-3.842-1.49,4.413,4.413,0,0,0-4.219,4.576v.042a4.4,4.4,0,0,0,4.45,4.659,5.158,5.158,0,0,0,3.044-.881v-2.1H287.91v-2.793h6.382v6.381A9.543,9.543,0,0,1,288.016,307.538Z" transform="translate(-280.291 -292.341)" fill="#fff"/>
        <path id="Path_52435" data-name="Path 52435" d="M333.208,307.681l-3.148-4.7h-2.54v4.7h-3.233V292.988H331c3.463,0,5.542,1.826,5.542,4.849v.041a4.563,4.563,0,0,1-3.149,4.555l3.59,5.248Zm.063-9.677c0-1.385-.966-2.1-2.54-2.1H327.52v4.218h3.274c1.574,0,2.477-.839,2.477-2.078Z" transform="translate(-307.18 -292.736)" fill="#fff"/>
        <path id="Path_52436" data-name="Path 52436" d="M372.272,307.516l-1.343-3.295h-6.213l-1.343,3.295h-3.3l6.3-14.8h2.98l6.3,14.8Zm-4.45-10.914-1.952,4.765h3.9Z" transform="translate(-329.053 -292.571)" fill="#fff"/>
        <path id="Path_52437" data-name="Path 52437" d="M416.269,307.681l-7.116-9.34v9.34h-3.191V292.988h2.982l6.885,9.048v-9.048h3.19v14.693Z" transform="translate(-357.096 -292.736)" fill="#fff"/>
        <path id="Path_52438" data-name="Path 52438" d="M454.661,307.538a7.353,7.353,0,0,1-7.724-7.557v-.041a7.542,7.542,0,0,1,7.7-7.6,8.067,8.067,0,0,1,5.773,2.015l-2.037,2.457a5.411,5.411,0,0,0-3.841-1.49,4.413,4.413,0,0,0-4.219,4.576v.042a4.4,4.4,0,0,0,4.45,4.659,5.158,5.158,0,0,0,3.044-.881v-2.1h-3.255v-2.793h6.382v6.381A9.541,9.541,0,0,1,454.661,307.538Z" transform="translate(-382.138 -292.341)" fill="#fff"/>
        <path id="Path_52439" data-name="Path 52439" d="M490.934,307.681V292.988h11.083v2.876h-7.872v2.981h6.928v2.875h-6.928v3.085h7.977v2.875Z" transform="translate(-409.027 -292.736)" fill="#fff"/>
      </g>
      <g id="Group_14637" data-name="Group 14637" transform="translate(29.819 46.41)">
        <path id="Path_52440" data-name="Path 52440" d="M358.518,338.209h-1.781v.809h1.579v.5h-1.579v.841h1.8v.5h-2.352v-3.15h2.33Z" transform="translate(-356.188 -337.655)" fill="#fff"/>
        <path id="Path_52441" data-name="Path 52441" d="M367.577,338.626a.326.326,0,0,0,.115.126.894.894,0,0,0,.23.108c.1.033.222.068.372.1a3.436,3.436,0,0,1,.44.139,1.113,1.113,0,0,1,.318.186.748.748,0,0,1,.192.256.845.845,0,0,1,.065.344.925.925,0,0,1-.082.4.848.848,0,0,1-.23.3,1.02,1.02,0,0,1-.354.184,1.558,1.558,0,0,1-.454.063,1.971,1.971,0,0,1-.7-.124,1.89,1.89,0,0,1-.617-.38l.333-.4a1.935,1.935,0,0,0,.464.3,1.27,1.27,0,0,0,.531.106.683.683,0,0,0,.407-.108.342.342,0,0,0,.151-.292.386.386,0,0,0-.03-.153.309.309,0,0,0-.108-.124.9.9,0,0,0-.217-.105c-.091-.033-.211-.067-.359-.1a3.815,3.815,0,0,1-.448-.13,1.131,1.131,0,0,1-.329-.18.718.718,0,0,1-.2-.261.885.885,0,0,1-.07-.373.871.871,0,0,1,.081-.376.89.89,0,0,1,.22-.29.962.962,0,0,1,.339-.186,1.366,1.366,0,0,1,.431-.065,1.805,1.805,0,0,1,.623.1,1.839,1.839,0,0,1,.52.294l-.3.419a1.892,1.892,0,0,0-.427-.241,1.158,1.158,0,0,0-.428-.084.584.584,0,0,0-.378.111.334.334,0,0,0-.135.268A.38.38,0,0,0,367.577,338.626Z" transform="translate(-362.719 -337.586)" fill="#fff"/>
        <path id="Path_52442" data-name="Path 52442" d="M379.087,340.859h-.558v-2.636h-1v-.514h2.555v.514h-1Z" transform="translate(-369.231 -337.655)" fill="#fff"/>
        <path id="Path_52443" data-name="Path 52443" d="M391.8,339.9a1.442,1.442,0,0,1-.344.5,1.605,1.605,0,0,1-.53.332,1.823,1.823,0,0,1-.677.122h-1.174v-3.15h1.174a1.865,1.865,0,0,1,.677.12,1.582,1.582,0,0,1,.53.331,1.44,1.44,0,0,1,.344.5,1.65,1.65,0,0,1,0,1.244Zm-.537-1.045a1.033,1.033,0,0,0-.222-.341,1,1,0,0,0-.345-.226,1.217,1.217,0,0,0-.451-.081h-.622v2.149h.622a1.241,1.241,0,0,0,.451-.079.992.992,0,0,0,.345-.221,1.011,1.011,0,0,0,.222-.339,1.224,1.224,0,0,0,0-.863Z" transform="translate(-376.287 -337.655)" fill="#fff"/>
        <path id="Path_52444" data-name="Path 52444" d="M408.841,338.211a1.77,1.77,0,0,0-.349.356l-.392-.306a2.732,2.732,0,0,1,.23-.282,1.242,1.242,0,0,1,.254-.209,1.146,1.146,0,0,1,.3-.129,1.392,1.392,0,0,1,.376-.045,1.274,1.274,0,0,1,.427.067.909.909,0,0,1,.329.193.887.887,0,0,1,.21.3.973.973,0,0,1,.073.384,1,1,0,0,1-.2.626,1.971,1.971,0,0,1-.257.283c-.1.1-.224.2-.361.315l-.648.539h1.5v.486h-2.276v-.436l1.084-.92c.107-.091.2-.171.275-.246a1.6,1.6,0,0,0,.182-.208.73.73,0,0,0,.1-.194.627.627,0,0,0,.032-.2.454.454,0,0,0-.147-.361.526.526,0,0,0-.362-.128A.642.642,0,0,0,408.841,338.211Z" transform="translate(-387.888 -337.586)" fill="#fff"/>
        <path id="Path_52445" data-name="Path 52445" d="M421.356,339.832a1.622,1.622,0,0,1-.279.519,1.35,1.35,0,0,1-.434.35,1.317,1.317,0,0,1-1.127,0,1.314,1.314,0,0,1-.432-.346,1.594,1.594,0,0,1-.276-.518,2.113,2.113,0,0,1,0-1.271,1.589,1.589,0,0,1,.279-.519,1.325,1.325,0,0,1,.434-.349,1.307,1.307,0,0,1,1.127,0,1.288,1.288,0,0,1,.432.346,1.588,1.588,0,0,1,.277.517,2.115,2.115,0,0,1,0,1.271Zm-.529-1.069a1.161,1.161,0,0,0-.162-.36.848.848,0,0,0-.254-.243.636.636,0,0,0-.334-.091.629.629,0,0,0-.33.088.824.824,0,0,0-.25.239,1.188,1.188,0,0,0-.159.357,1.775,1.775,0,0,0,0,.885,1.218,1.218,0,0,0,.162.36.815.815,0,0,0,.255.243.675.675,0,0,0,.663,0,.806.806,0,0,0,.25-.241,1.2,1.2,0,0,0,.159-.357,1.655,1.655,0,0,0,.056-.438A1.676,1.676,0,0,0,420.827,338.764Z" transform="translate(-394.399 -337.571)" fill="#fff"/>
        <path id="Path_52446" data-name="Path 52446" d="M431.133,338.211a1.783,1.783,0,0,0-.349.356l-.392-.306a2.732,2.732,0,0,1,.23-.282,1.242,1.242,0,0,1,.254-.209,1.146,1.146,0,0,1,.3-.129,1.389,1.389,0,0,1,.375-.045,1.272,1.272,0,0,1,.427.067.921.921,0,0,1,.329.193.888.888,0,0,1,.209.3.98.98,0,0,1,.074.384,1.058,1.058,0,0,1-.05.338,1.047,1.047,0,0,1-.15.288,1.967,1.967,0,0,1-.257.283c-.1.1-.224.2-.361.315l-.648.539h1.5v.486h-2.276v-.436l1.084-.92c.108-.091.2-.171.275-.246a1.564,1.564,0,0,0,.182-.208.745.745,0,0,0,.1-.194.66.66,0,0,0,.031-.2.454.454,0,0,0-.147-.361.526.526,0,0,0-.362-.128A.642.642,0,0,0,431.133,338.211Z" transform="translate(-401.512 -337.586)" fill="#fff"/>
        <path id="Path_52447" data-name="Path 52447" d="M441.489,337.652h.386v3.172h-.548v-2.609l-.567.158-.116-.449Z" transform="translate(-407.804 -337.62)" fill="#fff"/>
      </g>
      <g id="Group_14640" data-name="Group 14640" transform="translate(0 24.242)">
        <g id="Group_14638" data-name="Group 14638">
          <rect id="Rectangle_1049" data-name="Rectangle 1049" width="93.709" height="1.125" fill="#fff"/>
        </g>
        <g id="Group_14639" data-name="Group 14639" transform="translate(0.154 23.235)">
          <rect id="Rectangle_1050" data-name="Rectangle 1050" width="26.759" height="1.125" transform="translate(0)" fill="#fff"/>
          <rect id="Rectangle_1051" data-name="Rectangle 1051" width="26.759" height="1.125" transform="translate(66.642)" fill="#fff"/>
        </g>
      </g>
    </g>
  </g>
</svg>
